G04 #@! TF.GenerationSoftware,KiCad,Pcbnew,(5.1.5)-3*
G04 #@! TF.CreationDate,2022-01-09T16:05:41+01:00*
G04 #@! TF.ProjectId,plateau allumage,706c6174-6561-4752-9061-6c6c756d6167,rev?*
G04 #@! TF.SameCoordinates,Original*
G04 #@! TF.FileFunction,Copper,L2,Bot*
G04 #@! TF.FilePolarity,Positive*
%FSLAX46Y46*%
G04 Gerber Fmt 4.6, Leading zero omitted, Abs format (unit mm)*
G04 Created by KiCad (PCBNEW (5.1.5)-3) date 2022-01-09 16:05:41*
%MOMM*%
%LPD*%
G04 APERTURE LIST*
%ADD10R,5.000000X2.000000*%
%ADD11C,0.800000*%
%ADD12C,0.500000*%
%ADD13C,0.254000*%
G04 APERTURE END LIST*
D10*
X117348000Y-78486000D03*
X117348000Y-81534000D03*
X117348000Y-75438000D03*
X117348000Y-72390000D03*
D11*
X121666000Y-75438000D03*
X112950000Y-75420000D03*
X112560000Y-104340000D03*
X142160000Y-104070000D03*
X113500000Y-84680000D03*
X121690000Y-78440000D03*
X109850000Y-88190000D03*
X121610000Y-81340000D03*
D12*
X117348000Y-75438000D02*
X121666000Y-75438000D01*
X114598000Y-75438000D02*
X114580000Y-75420000D01*
X114580000Y-75420000D02*
X112950000Y-75420000D01*
X117348000Y-75438000D02*
X114598000Y-75438000D01*
X114598000Y-78486000D02*
X113440000Y-79644000D01*
X117348000Y-78486000D02*
X114598000Y-78486000D01*
X113440000Y-79644000D02*
X113440000Y-84620000D01*
X113440000Y-84620000D02*
X113500000Y-84680000D01*
X117348000Y-78486000D02*
X121644000Y-78486000D01*
X121644000Y-78486000D02*
X121690000Y-78440000D01*
X112380000Y-73450000D02*
X109850000Y-75980000D01*
X109850000Y-75980000D02*
X109850000Y-88190000D01*
X113538000Y-73450000D02*
X112380000Y-73450000D01*
X117348000Y-72390000D02*
X114598000Y-72390000D01*
X114598000Y-72390000D02*
X113538000Y-73450000D01*
X121610000Y-81340000D02*
X117542000Y-81340000D01*
X117542000Y-81340000D02*
X117348000Y-81534000D01*
D13*
G36*
X130700213Y-55958231D02*
G01*
X133373035Y-56233868D01*
X136025073Y-56665891D01*
X138647186Y-57252811D01*
X141230335Y-57992605D01*
X143765615Y-58882722D01*
X146244286Y-59920096D01*
X148657803Y-61101148D01*
X150997848Y-62421808D01*
X153256353Y-63877524D01*
X155425532Y-65463277D01*
X157497909Y-67173600D01*
X159466339Y-69002599D01*
X161324036Y-70943967D01*
X163064598Y-72991013D01*
X164682023Y-75136681D01*
X166170736Y-77373573D01*
X167525606Y-79693978D01*
X168741961Y-82089898D01*
X169815608Y-84553073D01*
X170742848Y-87075013D01*
X171520482Y-89647023D01*
X172145831Y-92260238D01*
X172616739Y-94905648D01*
X172931582Y-97574136D01*
X173089276Y-100256502D01*
X173089276Y-102943498D01*
X172931582Y-105625864D01*
X172616739Y-108294352D01*
X172145831Y-110939762D01*
X171520482Y-113552977D01*
X170742848Y-116124987D01*
X169815608Y-118646927D01*
X168741961Y-121110102D01*
X167525606Y-123506022D01*
X166170736Y-125826427D01*
X164682023Y-128063319D01*
X163064598Y-130208987D01*
X161324036Y-132256033D01*
X159466339Y-134197401D01*
X157497909Y-136026400D01*
X155425532Y-137736723D01*
X153256353Y-139322476D01*
X150997848Y-140778192D01*
X148657803Y-142098852D01*
X146244286Y-143279904D01*
X143765615Y-144317278D01*
X141230335Y-145207395D01*
X138647186Y-145947189D01*
X136025073Y-146534109D01*
X133373035Y-146966132D01*
X130700213Y-147241769D01*
X128015822Y-147360069D01*
X125329114Y-147320624D01*
X122649353Y-147123571D01*
X119985775Y-146769589D01*
X117347562Y-146259898D01*
X114743809Y-145596254D01*
X112183491Y-144780947D01*
X109675435Y-143816786D01*
X107359525Y-142766607D01*
X123965000Y-142766607D01*
X123965000Y-143433393D01*
X124095083Y-144087368D01*
X124350252Y-144703399D01*
X124720698Y-145257812D01*
X125192188Y-145729302D01*
X125746601Y-146099748D01*
X126362632Y-146354917D01*
X127016607Y-146485000D01*
X127683393Y-146485000D01*
X128337368Y-146354917D01*
X128953399Y-146099748D01*
X129507812Y-145729302D01*
X129979302Y-145257812D01*
X130349748Y-144703399D01*
X130604917Y-144087368D01*
X130735000Y-143433393D01*
X130735000Y-142766607D01*
X130604917Y-142112632D01*
X130349748Y-141496601D01*
X129979302Y-140942188D01*
X129507812Y-140470698D01*
X128953399Y-140100252D01*
X128337368Y-139845083D01*
X127683393Y-139715000D01*
X127016607Y-139715000D01*
X126362632Y-139845083D01*
X125746601Y-140100252D01*
X125192188Y-140470698D01*
X124720698Y-140942188D01*
X124350252Y-141496601D01*
X124095083Y-142112632D01*
X123965000Y-142766607D01*
X107359525Y-142766607D01*
X107228286Y-142707095D01*
X104850480Y-141455700D01*
X102550214Y-140066913D01*
X100335417Y-138545523D01*
X98213725Y-136896774D01*
X96192450Y-135126350D01*
X94278561Y-133240354D01*
X92478656Y-131245287D01*
X90798939Y-129148026D01*
X89245200Y-126955802D01*
X88993583Y-126552544D01*
X116695000Y-126552544D01*
X116695000Y-128647456D01*
X117103697Y-130702115D01*
X117905385Y-132637561D01*
X119069256Y-134379417D01*
X120550583Y-135860744D01*
X122292439Y-137024615D01*
X124227885Y-137826303D01*
X126282544Y-138235000D01*
X128377456Y-138235000D01*
X130432115Y-137826303D01*
X132367561Y-137024615D01*
X134109417Y-135860744D01*
X135590744Y-134379417D01*
X136754615Y-132637561D01*
X137556303Y-130702115D01*
X137965000Y-128647456D01*
X137965000Y-126552544D01*
X137556303Y-124497885D01*
X136754615Y-122562439D01*
X135590744Y-120820583D01*
X134109417Y-119339256D01*
X132367561Y-118175385D01*
X130432115Y-117373697D01*
X128377456Y-116965000D01*
X126282544Y-116965000D01*
X124227885Y-117373697D01*
X122292439Y-118175385D01*
X120550583Y-119339256D01*
X119069256Y-120820583D01*
X117905385Y-122562439D01*
X117103697Y-124497885D01*
X116695000Y-126552544D01*
X88993583Y-126552544D01*
X87822796Y-124676170D01*
X86536629Y-122316991D01*
X85391134Y-119886396D01*
X84390259Y-117392764D01*
X83537455Y-114844690D01*
X82835661Y-112250960D01*
X82287296Y-109620514D01*
X81894251Y-106962419D01*
X81657881Y-104285839D01*
X81579000Y-101600000D01*
X81584746Y-101404344D01*
X83455000Y-101404344D01*
X83455000Y-101775656D01*
X83527439Y-102139834D01*
X83669534Y-102482882D01*
X83875825Y-102791618D01*
X84138382Y-103054175D01*
X84447118Y-103260466D01*
X84790166Y-103402561D01*
X85154344Y-103475000D01*
X85525656Y-103475000D01*
X85889834Y-103402561D01*
X86232882Y-103260466D01*
X86541618Y-103054175D01*
X86804175Y-102791618D01*
X87010466Y-102482882D01*
X87152561Y-102139834D01*
X87225000Y-101775656D01*
X87225000Y-101404344D01*
X87152561Y-101040166D01*
X87010466Y-100697118D01*
X86804175Y-100388382D01*
X86732108Y-100316315D01*
X114215000Y-100316315D01*
X114215000Y-102903685D01*
X114719770Y-105441338D01*
X115709914Y-107831756D01*
X117147379Y-109983075D01*
X118976925Y-111812621D01*
X121128244Y-113250086D01*
X123518662Y-114240230D01*
X126056315Y-114745000D01*
X128643685Y-114745000D01*
X131181338Y-114240230D01*
X133571756Y-113250086D01*
X135723075Y-111812621D01*
X137552621Y-109983075D01*
X138990086Y-107831756D01*
X139980230Y-105441338D01*
X140485000Y-102903685D01*
X140485000Y-101414344D01*
X167455000Y-101414344D01*
X167455000Y-101785656D01*
X167527439Y-102149834D01*
X167669534Y-102492882D01*
X167875825Y-102801618D01*
X168138382Y-103064175D01*
X168447118Y-103270466D01*
X168790166Y-103412561D01*
X169154344Y-103485000D01*
X169525656Y-103485000D01*
X169889834Y-103412561D01*
X170232882Y-103270466D01*
X170541618Y-103064175D01*
X170804175Y-102801618D01*
X171010466Y-102492882D01*
X171152561Y-102149834D01*
X171225000Y-101785656D01*
X171225000Y-101414344D01*
X171152561Y-101050166D01*
X171010466Y-100707118D01*
X170804175Y-100398382D01*
X170541618Y-100135825D01*
X170232882Y-99929534D01*
X169889834Y-99787439D01*
X169525656Y-99715000D01*
X169154344Y-99715000D01*
X168790166Y-99787439D01*
X168447118Y-99929534D01*
X168138382Y-100135825D01*
X167875825Y-100398382D01*
X167669534Y-100707118D01*
X167527439Y-101050166D01*
X167455000Y-101414344D01*
X140485000Y-101414344D01*
X140485000Y-100316315D01*
X139980230Y-97778662D01*
X138990086Y-95388244D01*
X137552621Y-93236925D01*
X135723075Y-91407379D01*
X133571756Y-89969914D01*
X131181338Y-88979770D01*
X128643685Y-88475000D01*
X126056315Y-88475000D01*
X123518662Y-88979770D01*
X121128244Y-89969914D01*
X118976925Y-91407379D01*
X117147379Y-93236925D01*
X115709914Y-95388244D01*
X114719770Y-97778662D01*
X114215000Y-100316315D01*
X86732108Y-100316315D01*
X86541618Y-100125825D01*
X86232882Y-99919534D01*
X85889834Y-99777439D01*
X85525656Y-99705000D01*
X85154344Y-99705000D01*
X84790166Y-99777439D01*
X84447118Y-99919534D01*
X84138382Y-100125825D01*
X83875825Y-100388382D01*
X83669534Y-100697118D01*
X83527439Y-101040166D01*
X83455000Y-101404344D01*
X81584746Y-101404344D01*
X81657881Y-98914161D01*
X81894251Y-96237581D01*
X82287296Y-93579486D01*
X82835661Y-90949040D01*
X83537455Y-88355310D01*
X83626899Y-88088061D01*
X108815000Y-88088061D01*
X108815000Y-88291939D01*
X108854774Y-88491898D01*
X108932795Y-88680256D01*
X109046063Y-88849774D01*
X109190226Y-88993937D01*
X109359744Y-89107205D01*
X109548102Y-89185226D01*
X109748061Y-89225000D01*
X109951939Y-89225000D01*
X110151898Y-89185226D01*
X110340256Y-89107205D01*
X110509774Y-88993937D01*
X110653937Y-88849774D01*
X110767205Y-88680256D01*
X110845226Y-88491898D01*
X110885000Y-88291939D01*
X110885000Y-88088061D01*
X110845226Y-87888102D01*
X110767205Y-87699744D01*
X110735000Y-87651546D01*
X110735000Y-84578061D01*
X112465000Y-84578061D01*
X112465000Y-84781939D01*
X112504774Y-84981898D01*
X112582795Y-85170256D01*
X112696063Y-85339774D01*
X112840226Y-85483937D01*
X113009744Y-85597205D01*
X113198102Y-85675226D01*
X113398061Y-85715000D01*
X113601939Y-85715000D01*
X113801898Y-85675226D01*
X113990256Y-85597205D01*
X114159774Y-85483937D01*
X114303937Y-85339774D01*
X114417205Y-85170256D01*
X114495226Y-84981898D01*
X114535000Y-84781939D01*
X114535000Y-84578061D01*
X114495226Y-84378102D01*
X114417205Y-84189744D01*
X114325000Y-84051749D01*
X114325000Y-82897678D01*
X114396815Y-82985185D01*
X114493506Y-83064537D01*
X114603820Y-83123502D01*
X114723518Y-83159812D01*
X114848000Y-83172072D01*
X119848000Y-83172072D01*
X119972482Y-83159812D01*
X120092180Y-83123502D01*
X120202494Y-83064537D01*
X120299185Y-82985185D01*
X120378537Y-82888494D01*
X120437502Y-82778180D01*
X120473812Y-82658482D01*
X120486072Y-82534000D01*
X120486072Y-82225000D01*
X121071546Y-82225000D01*
X121119744Y-82257205D01*
X121308102Y-82335226D01*
X121508061Y-82375000D01*
X121711939Y-82375000D01*
X121911898Y-82335226D01*
X122100256Y-82257205D01*
X122269774Y-82143937D01*
X122413937Y-81999774D01*
X122527205Y-81830256D01*
X122605226Y-81641898D01*
X122645000Y-81441939D01*
X122645000Y-81238061D01*
X122605226Y-81038102D01*
X122527205Y-80849744D01*
X122413937Y-80680226D01*
X122269774Y-80536063D01*
X122100256Y-80422795D01*
X121911898Y-80344774D01*
X121711939Y-80305000D01*
X121508061Y-80305000D01*
X121308102Y-80344774D01*
X121119744Y-80422795D01*
X121071546Y-80455000D01*
X120478291Y-80455000D01*
X120473812Y-80409518D01*
X120437502Y-80289820D01*
X120378537Y-80179506D01*
X120299185Y-80082815D01*
X120210459Y-80010000D01*
X120299185Y-79937185D01*
X120378537Y-79840494D01*
X120437502Y-79730180D01*
X120473812Y-79610482D01*
X120486072Y-79486000D01*
X120486072Y-79371000D01*
X121233048Y-79371000D01*
X121388102Y-79435226D01*
X121588061Y-79475000D01*
X121791939Y-79475000D01*
X121991898Y-79435226D01*
X122180256Y-79357205D01*
X122349774Y-79243937D01*
X122493937Y-79099774D01*
X122607205Y-78930256D01*
X122685226Y-78741898D01*
X122725000Y-78541939D01*
X122725000Y-78338061D01*
X122685226Y-78138102D01*
X122607205Y-77949744D01*
X122493937Y-77780226D01*
X122349774Y-77636063D01*
X122180256Y-77522795D01*
X121991898Y-77444774D01*
X121791939Y-77405000D01*
X121588061Y-77405000D01*
X121388102Y-77444774D01*
X121199744Y-77522795D01*
X121082702Y-77601000D01*
X120486072Y-77601000D01*
X120486072Y-77486000D01*
X120473812Y-77361518D01*
X120437502Y-77241820D01*
X120378537Y-77131506D01*
X120299185Y-77034815D01*
X120210459Y-76962000D01*
X120299185Y-76889185D01*
X120378537Y-76792494D01*
X120437502Y-76682180D01*
X120473812Y-76562482D01*
X120486072Y-76438000D01*
X120483000Y-75723750D01*
X120324250Y-75565000D01*
X117475000Y-75565000D01*
X117475000Y-75585000D01*
X117221000Y-75585000D01*
X117221000Y-75565000D01*
X114371750Y-75565000D01*
X114213000Y-75723750D01*
X114209928Y-76438000D01*
X114222188Y-76562482D01*
X114258498Y-76682180D01*
X114317463Y-76792494D01*
X114396815Y-76889185D01*
X114485541Y-76962000D01*
X114396815Y-77034815D01*
X114317463Y-77131506D01*
X114258498Y-77241820D01*
X114222188Y-77361518D01*
X114209928Y-77486000D01*
X114209928Y-77689938D01*
X114103941Y-77746589D01*
X114103939Y-77746590D01*
X114103940Y-77746590D01*
X114002953Y-77829468D01*
X114002951Y-77829470D01*
X113969183Y-77857183D01*
X113941470Y-77890951D01*
X112844956Y-78987466D01*
X112811183Y-79015183D01*
X112700589Y-79149942D01*
X112618411Y-79303688D01*
X112567805Y-79470511D01*
X112555000Y-79600524D01*
X112555000Y-79600531D01*
X112550719Y-79644000D01*
X112555000Y-79687469D01*
X112555001Y-84256844D01*
X112504774Y-84378102D01*
X112465000Y-84578061D01*
X110735000Y-84578061D01*
X110735000Y-76346578D01*
X112746579Y-74335000D01*
X113494531Y-74335000D01*
X113538000Y-74339281D01*
X113581469Y-74335000D01*
X113581477Y-74335000D01*
X113711490Y-74322195D01*
X113878313Y-74271589D01*
X114032059Y-74189411D01*
X114166817Y-74078817D01*
X114194534Y-74045044D01*
X114397682Y-73841896D01*
X114485541Y-73914000D01*
X114396815Y-73986815D01*
X114317463Y-74083506D01*
X114258498Y-74193820D01*
X114222188Y-74313518D01*
X114209928Y-74438000D01*
X114213000Y-75152250D01*
X114371750Y-75311000D01*
X117221000Y-75311000D01*
X117221000Y-75291000D01*
X117475000Y-75291000D01*
X117475000Y-75311000D01*
X120324250Y-75311000D01*
X120483000Y-75152250D01*
X120486072Y-74438000D01*
X120473812Y-74313518D01*
X120437502Y-74193820D01*
X120378537Y-74083506D01*
X120372876Y-74076607D01*
X155325000Y-74076607D01*
X155325000Y-74743393D01*
X155455083Y-75397368D01*
X155710252Y-76013399D01*
X156080698Y-76567812D01*
X156552188Y-77039302D01*
X157106601Y-77409748D01*
X157722632Y-77664917D01*
X158376607Y-77795000D01*
X159043393Y-77795000D01*
X159697368Y-77664917D01*
X160313399Y-77409748D01*
X160867812Y-77039302D01*
X161339302Y-76567812D01*
X161709748Y-76013399D01*
X161964917Y-75397368D01*
X162095000Y-74743393D01*
X162095000Y-74076607D01*
X161964917Y-73422632D01*
X161709748Y-72806601D01*
X161339302Y-72252188D01*
X160867812Y-71780698D01*
X160313399Y-71410252D01*
X159697368Y-71155083D01*
X159043393Y-71025000D01*
X158376607Y-71025000D01*
X157722632Y-71155083D01*
X157106601Y-71410252D01*
X156552188Y-71780698D01*
X156080698Y-72252188D01*
X155710252Y-72806601D01*
X155455083Y-73422632D01*
X155325000Y-74076607D01*
X120372876Y-74076607D01*
X120299185Y-73986815D01*
X120210459Y-73914000D01*
X120299185Y-73841185D01*
X120378537Y-73744494D01*
X120437502Y-73634180D01*
X120473812Y-73514482D01*
X120486072Y-73390000D01*
X120486072Y-71414344D01*
X125455000Y-71414344D01*
X125455000Y-71785656D01*
X125527439Y-72149834D01*
X125669534Y-72492882D01*
X125875825Y-72801618D01*
X126138382Y-73064175D01*
X126447118Y-73270466D01*
X126790166Y-73412561D01*
X127154344Y-73485000D01*
X127525656Y-73485000D01*
X127889834Y-73412561D01*
X128232882Y-73270466D01*
X128541618Y-73064175D01*
X128804175Y-72801618D01*
X129010466Y-72492882D01*
X129152561Y-72149834D01*
X129225000Y-71785656D01*
X129225000Y-71414344D01*
X129152561Y-71050166D01*
X129010466Y-70707118D01*
X128804175Y-70398382D01*
X128541618Y-70135825D01*
X128232882Y-69929534D01*
X127889834Y-69787439D01*
X127525656Y-69715000D01*
X127154344Y-69715000D01*
X126790166Y-69787439D01*
X126447118Y-69929534D01*
X126138382Y-70135825D01*
X125875825Y-70398382D01*
X125669534Y-70707118D01*
X125527439Y-71050166D01*
X125455000Y-71414344D01*
X120486072Y-71414344D01*
X120486072Y-71390000D01*
X120473812Y-71265518D01*
X120437502Y-71145820D01*
X120378537Y-71035506D01*
X120299185Y-70938815D01*
X120202494Y-70859463D01*
X120092180Y-70800498D01*
X119972482Y-70764188D01*
X119848000Y-70751928D01*
X114848000Y-70751928D01*
X114723518Y-70764188D01*
X114603820Y-70800498D01*
X114493506Y-70859463D01*
X114396815Y-70938815D01*
X114317463Y-71035506D01*
X114258498Y-71145820D01*
X114222188Y-71265518D01*
X114209928Y-71390000D01*
X114209928Y-71593938D01*
X114103941Y-71650589D01*
X114103939Y-71650590D01*
X114103940Y-71650590D01*
X114002953Y-71733468D01*
X114002951Y-71733470D01*
X113969183Y-71761183D01*
X113941470Y-71794951D01*
X113171422Y-72565000D01*
X112423465Y-72565000D01*
X112379999Y-72560719D01*
X112336533Y-72565000D01*
X112336523Y-72565000D01*
X112206510Y-72577805D01*
X112039687Y-72628411D01*
X111885941Y-72710589D01*
X111885939Y-72710590D01*
X111885940Y-72710590D01*
X111784953Y-72793468D01*
X111784951Y-72793470D01*
X111751183Y-72821183D01*
X111723470Y-72854951D01*
X109254956Y-75323466D01*
X109221183Y-75351183D01*
X109110589Y-75485942D01*
X109028411Y-75639688D01*
X108977805Y-75806511D01*
X108965000Y-75936524D01*
X108965000Y-75936531D01*
X108960719Y-75980000D01*
X108965000Y-76023469D01*
X108965001Y-87651544D01*
X108932795Y-87699744D01*
X108854774Y-87888102D01*
X108815000Y-88088061D01*
X83626899Y-88088061D01*
X84390259Y-85807236D01*
X85391134Y-83313604D01*
X86536629Y-80883009D01*
X87822796Y-78523830D01*
X88357670Y-77666607D01*
X89815000Y-77666607D01*
X89815000Y-78333393D01*
X89945083Y-78987368D01*
X90200252Y-79603399D01*
X90570698Y-80157812D01*
X91042188Y-80629302D01*
X91596601Y-80999748D01*
X92212632Y-81254917D01*
X92866607Y-81385000D01*
X93533393Y-81385000D01*
X94187368Y-81254917D01*
X94803399Y-80999748D01*
X95357812Y-80629302D01*
X95829302Y-80157812D01*
X96199748Y-79603399D01*
X96454917Y-78987368D01*
X96585000Y-78333393D01*
X96585000Y-77666607D01*
X96454917Y-77012632D01*
X96199748Y-76396601D01*
X95829302Y-75842188D01*
X95357812Y-75370698D01*
X94803399Y-75000252D01*
X94187368Y-74745083D01*
X93533393Y-74615000D01*
X92866607Y-74615000D01*
X92212632Y-74745083D01*
X91596601Y-75000252D01*
X91042188Y-75370698D01*
X90570698Y-75842188D01*
X90200252Y-76396601D01*
X89945083Y-77012632D01*
X89815000Y-77666607D01*
X88357670Y-77666607D01*
X89245200Y-76244198D01*
X90798939Y-74051974D01*
X92478656Y-71954713D01*
X94278561Y-69959646D01*
X96192450Y-68073650D01*
X98213725Y-66303226D01*
X100335417Y-64654477D01*
X102550214Y-63133087D01*
X104850480Y-61744300D01*
X107228286Y-60492905D01*
X109675435Y-59383214D01*
X112183491Y-58419053D01*
X114743809Y-57603746D01*
X117347562Y-56940102D01*
X119985775Y-56430411D01*
X122649353Y-56076429D01*
X125329114Y-55879376D01*
X128015822Y-55839931D01*
X130700213Y-55958231D01*
G37*
X130700213Y-55958231D02*
X133373035Y-56233868D01*
X136025073Y-56665891D01*
X138647186Y-57252811D01*
X141230335Y-57992605D01*
X143765615Y-58882722D01*
X146244286Y-59920096D01*
X148657803Y-61101148D01*
X150997848Y-62421808D01*
X153256353Y-63877524D01*
X155425532Y-65463277D01*
X157497909Y-67173600D01*
X159466339Y-69002599D01*
X161324036Y-70943967D01*
X163064598Y-72991013D01*
X164682023Y-75136681D01*
X166170736Y-77373573D01*
X167525606Y-79693978D01*
X168741961Y-82089898D01*
X169815608Y-84553073D01*
X170742848Y-87075013D01*
X171520482Y-89647023D01*
X172145831Y-92260238D01*
X172616739Y-94905648D01*
X172931582Y-97574136D01*
X173089276Y-100256502D01*
X173089276Y-102943498D01*
X172931582Y-105625864D01*
X172616739Y-108294352D01*
X172145831Y-110939762D01*
X171520482Y-113552977D01*
X170742848Y-116124987D01*
X169815608Y-118646927D01*
X168741961Y-121110102D01*
X167525606Y-123506022D01*
X166170736Y-125826427D01*
X164682023Y-128063319D01*
X163064598Y-130208987D01*
X161324036Y-132256033D01*
X159466339Y-134197401D01*
X157497909Y-136026400D01*
X155425532Y-137736723D01*
X153256353Y-139322476D01*
X150997848Y-140778192D01*
X148657803Y-142098852D01*
X146244286Y-143279904D01*
X143765615Y-144317278D01*
X141230335Y-145207395D01*
X138647186Y-145947189D01*
X136025073Y-146534109D01*
X133373035Y-146966132D01*
X130700213Y-147241769D01*
X128015822Y-147360069D01*
X125329114Y-147320624D01*
X122649353Y-147123571D01*
X119985775Y-146769589D01*
X117347562Y-146259898D01*
X114743809Y-145596254D01*
X112183491Y-144780947D01*
X109675435Y-143816786D01*
X107359525Y-142766607D01*
X123965000Y-142766607D01*
X123965000Y-143433393D01*
X124095083Y-144087368D01*
X124350252Y-144703399D01*
X124720698Y-145257812D01*
X125192188Y-145729302D01*
X125746601Y-146099748D01*
X126362632Y-146354917D01*
X127016607Y-146485000D01*
X127683393Y-146485000D01*
X128337368Y-146354917D01*
X128953399Y-146099748D01*
X129507812Y-145729302D01*
X129979302Y-145257812D01*
X130349748Y-144703399D01*
X130604917Y-144087368D01*
X130735000Y-143433393D01*
X130735000Y-142766607D01*
X130604917Y-142112632D01*
X130349748Y-141496601D01*
X129979302Y-140942188D01*
X129507812Y-140470698D01*
X128953399Y-140100252D01*
X128337368Y-139845083D01*
X127683393Y-139715000D01*
X127016607Y-139715000D01*
X126362632Y-139845083D01*
X125746601Y-140100252D01*
X125192188Y-140470698D01*
X124720698Y-140942188D01*
X124350252Y-141496601D01*
X124095083Y-142112632D01*
X123965000Y-142766607D01*
X107359525Y-142766607D01*
X107228286Y-142707095D01*
X104850480Y-141455700D01*
X102550214Y-140066913D01*
X100335417Y-138545523D01*
X98213725Y-136896774D01*
X96192450Y-135126350D01*
X94278561Y-133240354D01*
X92478656Y-131245287D01*
X90798939Y-129148026D01*
X89245200Y-126955802D01*
X88993583Y-126552544D01*
X116695000Y-126552544D01*
X116695000Y-128647456D01*
X117103697Y-130702115D01*
X117905385Y-132637561D01*
X119069256Y-134379417D01*
X120550583Y-135860744D01*
X122292439Y-137024615D01*
X124227885Y-137826303D01*
X126282544Y-138235000D01*
X128377456Y-138235000D01*
X130432115Y-137826303D01*
X132367561Y-137024615D01*
X134109417Y-135860744D01*
X135590744Y-134379417D01*
X136754615Y-132637561D01*
X137556303Y-130702115D01*
X137965000Y-128647456D01*
X137965000Y-126552544D01*
X137556303Y-124497885D01*
X136754615Y-122562439D01*
X135590744Y-120820583D01*
X134109417Y-119339256D01*
X132367561Y-118175385D01*
X130432115Y-117373697D01*
X128377456Y-116965000D01*
X126282544Y-116965000D01*
X124227885Y-117373697D01*
X122292439Y-118175385D01*
X120550583Y-119339256D01*
X119069256Y-120820583D01*
X117905385Y-122562439D01*
X117103697Y-124497885D01*
X116695000Y-126552544D01*
X88993583Y-126552544D01*
X87822796Y-124676170D01*
X86536629Y-122316991D01*
X85391134Y-119886396D01*
X84390259Y-117392764D01*
X83537455Y-114844690D01*
X82835661Y-112250960D01*
X82287296Y-109620514D01*
X81894251Y-106962419D01*
X81657881Y-104285839D01*
X81579000Y-101600000D01*
X81584746Y-101404344D01*
X83455000Y-101404344D01*
X83455000Y-101775656D01*
X83527439Y-102139834D01*
X83669534Y-102482882D01*
X83875825Y-102791618D01*
X84138382Y-103054175D01*
X84447118Y-103260466D01*
X84790166Y-103402561D01*
X85154344Y-103475000D01*
X85525656Y-103475000D01*
X85889834Y-103402561D01*
X86232882Y-103260466D01*
X86541618Y-103054175D01*
X86804175Y-102791618D01*
X87010466Y-102482882D01*
X87152561Y-102139834D01*
X87225000Y-101775656D01*
X87225000Y-101404344D01*
X87152561Y-101040166D01*
X87010466Y-100697118D01*
X86804175Y-100388382D01*
X86732108Y-100316315D01*
X114215000Y-100316315D01*
X114215000Y-102903685D01*
X114719770Y-105441338D01*
X115709914Y-107831756D01*
X117147379Y-109983075D01*
X118976925Y-111812621D01*
X121128244Y-113250086D01*
X123518662Y-114240230D01*
X126056315Y-114745000D01*
X128643685Y-114745000D01*
X131181338Y-114240230D01*
X133571756Y-113250086D01*
X135723075Y-111812621D01*
X137552621Y-109983075D01*
X138990086Y-107831756D01*
X139980230Y-105441338D01*
X140485000Y-102903685D01*
X140485000Y-101414344D01*
X167455000Y-101414344D01*
X167455000Y-101785656D01*
X167527439Y-102149834D01*
X167669534Y-102492882D01*
X167875825Y-102801618D01*
X168138382Y-103064175D01*
X168447118Y-103270466D01*
X168790166Y-103412561D01*
X169154344Y-103485000D01*
X169525656Y-103485000D01*
X169889834Y-103412561D01*
X170232882Y-103270466D01*
X170541618Y-103064175D01*
X170804175Y-102801618D01*
X171010466Y-102492882D01*
X171152561Y-102149834D01*
X171225000Y-101785656D01*
X171225000Y-101414344D01*
X171152561Y-101050166D01*
X171010466Y-100707118D01*
X170804175Y-100398382D01*
X170541618Y-100135825D01*
X170232882Y-99929534D01*
X169889834Y-99787439D01*
X169525656Y-99715000D01*
X169154344Y-99715000D01*
X168790166Y-99787439D01*
X168447118Y-99929534D01*
X168138382Y-100135825D01*
X167875825Y-100398382D01*
X167669534Y-100707118D01*
X167527439Y-101050166D01*
X167455000Y-101414344D01*
X140485000Y-101414344D01*
X140485000Y-100316315D01*
X139980230Y-97778662D01*
X138990086Y-95388244D01*
X137552621Y-93236925D01*
X135723075Y-91407379D01*
X133571756Y-89969914D01*
X131181338Y-88979770D01*
X128643685Y-88475000D01*
X126056315Y-88475000D01*
X123518662Y-88979770D01*
X121128244Y-89969914D01*
X118976925Y-91407379D01*
X117147379Y-93236925D01*
X115709914Y-95388244D01*
X114719770Y-97778662D01*
X114215000Y-100316315D01*
X86732108Y-100316315D01*
X86541618Y-100125825D01*
X86232882Y-99919534D01*
X85889834Y-99777439D01*
X85525656Y-99705000D01*
X85154344Y-99705000D01*
X84790166Y-99777439D01*
X84447118Y-99919534D01*
X84138382Y-100125825D01*
X83875825Y-100388382D01*
X83669534Y-100697118D01*
X83527439Y-101040166D01*
X83455000Y-101404344D01*
X81584746Y-101404344D01*
X81657881Y-98914161D01*
X81894251Y-96237581D01*
X82287296Y-93579486D01*
X82835661Y-90949040D01*
X83537455Y-88355310D01*
X83626899Y-88088061D01*
X108815000Y-88088061D01*
X108815000Y-88291939D01*
X108854774Y-88491898D01*
X108932795Y-88680256D01*
X109046063Y-88849774D01*
X109190226Y-88993937D01*
X109359744Y-89107205D01*
X109548102Y-89185226D01*
X109748061Y-89225000D01*
X109951939Y-89225000D01*
X110151898Y-89185226D01*
X110340256Y-89107205D01*
X110509774Y-88993937D01*
X110653937Y-88849774D01*
X110767205Y-88680256D01*
X110845226Y-88491898D01*
X110885000Y-88291939D01*
X110885000Y-88088061D01*
X110845226Y-87888102D01*
X110767205Y-87699744D01*
X110735000Y-87651546D01*
X110735000Y-84578061D01*
X112465000Y-84578061D01*
X112465000Y-84781939D01*
X112504774Y-84981898D01*
X112582795Y-85170256D01*
X112696063Y-85339774D01*
X112840226Y-85483937D01*
X113009744Y-85597205D01*
X113198102Y-85675226D01*
X113398061Y-85715000D01*
X113601939Y-85715000D01*
X113801898Y-85675226D01*
X113990256Y-85597205D01*
X114159774Y-85483937D01*
X114303937Y-85339774D01*
X114417205Y-85170256D01*
X114495226Y-84981898D01*
X114535000Y-84781939D01*
X114535000Y-84578061D01*
X114495226Y-84378102D01*
X114417205Y-84189744D01*
X114325000Y-84051749D01*
X114325000Y-82897678D01*
X114396815Y-82985185D01*
X114493506Y-83064537D01*
X114603820Y-83123502D01*
X114723518Y-83159812D01*
X114848000Y-83172072D01*
X119848000Y-83172072D01*
X119972482Y-83159812D01*
X120092180Y-83123502D01*
X120202494Y-83064537D01*
X120299185Y-82985185D01*
X120378537Y-82888494D01*
X120437502Y-82778180D01*
X120473812Y-82658482D01*
X120486072Y-82534000D01*
X120486072Y-82225000D01*
X121071546Y-82225000D01*
X121119744Y-82257205D01*
X121308102Y-82335226D01*
X121508061Y-82375000D01*
X121711939Y-82375000D01*
X121911898Y-82335226D01*
X122100256Y-82257205D01*
X122269774Y-82143937D01*
X122413937Y-81999774D01*
X122527205Y-81830256D01*
X122605226Y-81641898D01*
X122645000Y-81441939D01*
X122645000Y-81238061D01*
X122605226Y-81038102D01*
X122527205Y-80849744D01*
X122413937Y-80680226D01*
X122269774Y-80536063D01*
X122100256Y-80422795D01*
X121911898Y-80344774D01*
X121711939Y-80305000D01*
X121508061Y-80305000D01*
X121308102Y-80344774D01*
X121119744Y-80422795D01*
X121071546Y-80455000D01*
X120478291Y-80455000D01*
X120473812Y-80409518D01*
X120437502Y-80289820D01*
X120378537Y-80179506D01*
X120299185Y-80082815D01*
X120210459Y-80010000D01*
X120299185Y-79937185D01*
X120378537Y-79840494D01*
X120437502Y-79730180D01*
X120473812Y-79610482D01*
X120486072Y-79486000D01*
X120486072Y-79371000D01*
X121233048Y-79371000D01*
X121388102Y-79435226D01*
X121588061Y-79475000D01*
X121791939Y-79475000D01*
X121991898Y-79435226D01*
X122180256Y-79357205D01*
X122349774Y-79243937D01*
X122493937Y-79099774D01*
X122607205Y-78930256D01*
X122685226Y-78741898D01*
X122725000Y-78541939D01*
X122725000Y-78338061D01*
X122685226Y-78138102D01*
X122607205Y-77949744D01*
X122493937Y-77780226D01*
X122349774Y-77636063D01*
X122180256Y-77522795D01*
X121991898Y-77444774D01*
X121791939Y-77405000D01*
X121588061Y-77405000D01*
X121388102Y-77444774D01*
X121199744Y-77522795D01*
X121082702Y-77601000D01*
X120486072Y-77601000D01*
X120486072Y-77486000D01*
X120473812Y-77361518D01*
X120437502Y-77241820D01*
X120378537Y-77131506D01*
X120299185Y-77034815D01*
X120210459Y-76962000D01*
X120299185Y-76889185D01*
X120378537Y-76792494D01*
X120437502Y-76682180D01*
X120473812Y-76562482D01*
X120486072Y-76438000D01*
X120483000Y-75723750D01*
X120324250Y-75565000D01*
X117475000Y-75565000D01*
X117475000Y-75585000D01*
X117221000Y-75585000D01*
X117221000Y-75565000D01*
X114371750Y-75565000D01*
X114213000Y-75723750D01*
X114209928Y-76438000D01*
X114222188Y-76562482D01*
X114258498Y-76682180D01*
X114317463Y-76792494D01*
X114396815Y-76889185D01*
X114485541Y-76962000D01*
X114396815Y-77034815D01*
X114317463Y-77131506D01*
X114258498Y-77241820D01*
X114222188Y-77361518D01*
X114209928Y-77486000D01*
X114209928Y-77689938D01*
X114103941Y-77746589D01*
X114103939Y-77746590D01*
X114103940Y-77746590D01*
X114002953Y-77829468D01*
X114002951Y-77829470D01*
X113969183Y-77857183D01*
X113941470Y-77890951D01*
X112844956Y-78987466D01*
X112811183Y-79015183D01*
X112700589Y-79149942D01*
X112618411Y-79303688D01*
X112567805Y-79470511D01*
X112555000Y-79600524D01*
X112555000Y-79600531D01*
X112550719Y-79644000D01*
X112555000Y-79687469D01*
X112555001Y-84256844D01*
X112504774Y-84378102D01*
X112465000Y-84578061D01*
X110735000Y-84578061D01*
X110735000Y-76346578D01*
X112746579Y-74335000D01*
X113494531Y-74335000D01*
X113538000Y-74339281D01*
X113581469Y-74335000D01*
X113581477Y-74335000D01*
X113711490Y-74322195D01*
X113878313Y-74271589D01*
X114032059Y-74189411D01*
X114166817Y-74078817D01*
X114194534Y-74045044D01*
X114397682Y-73841896D01*
X114485541Y-73914000D01*
X114396815Y-73986815D01*
X114317463Y-74083506D01*
X114258498Y-74193820D01*
X114222188Y-74313518D01*
X114209928Y-74438000D01*
X114213000Y-75152250D01*
X114371750Y-75311000D01*
X117221000Y-75311000D01*
X117221000Y-75291000D01*
X117475000Y-75291000D01*
X117475000Y-75311000D01*
X120324250Y-75311000D01*
X120483000Y-75152250D01*
X120486072Y-74438000D01*
X120473812Y-74313518D01*
X120437502Y-74193820D01*
X120378537Y-74083506D01*
X120372876Y-74076607D01*
X155325000Y-74076607D01*
X155325000Y-74743393D01*
X155455083Y-75397368D01*
X155710252Y-76013399D01*
X156080698Y-76567812D01*
X156552188Y-77039302D01*
X157106601Y-77409748D01*
X157722632Y-77664917D01*
X158376607Y-77795000D01*
X159043393Y-77795000D01*
X159697368Y-77664917D01*
X160313399Y-77409748D01*
X160867812Y-77039302D01*
X161339302Y-76567812D01*
X161709748Y-76013399D01*
X161964917Y-75397368D01*
X162095000Y-74743393D01*
X162095000Y-74076607D01*
X161964917Y-73422632D01*
X161709748Y-72806601D01*
X161339302Y-72252188D01*
X160867812Y-71780698D01*
X160313399Y-71410252D01*
X159697368Y-71155083D01*
X159043393Y-71025000D01*
X158376607Y-71025000D01*
X157722632Y-71155083D01*
X157106601Y-71410252D01*
X156552188Y-71780698D01*
X156080698Y-72252188D01*
X155710252Y-72806601D01*
X155455083Y-73422632D01*
X155325000Y-74076607D01*
X120372876Y-74076607D01*
X120299185Y-73986815D01*
X120210459Y-73914000D01*
X120299185Y-73841185D01*
X120378537Y-73744494D01*
X120437502Y-73634180D01*
X120473812Y-73514482D01*
X120486072Y-73390000D01*
X120486072Y-71414344D01*
X125455000Y-71414344D01*
X125455000Y-71785656D01*
X125527439Y-72149834D01*
X125669534Y-72492882D01*
X125875825Y-72801618D01*
X126138382Y-73064175D01*
X126447118Y-73270466D01*
X126790166Y-73412561D01*
X127154344Y-73485000D01*
X127525656Y-73485000D01*
X127889834Y-73412561D01*
X128232882Y-73270466D01*
X128541618Y-73064175D01*
X128804175Y-72801618D01*
X129010466Y-72492882D01*
X129152561Y-72149834D01*
X129225000Y-71785656D01*
X129225000Y-71414344D01*
X129152561Y-71050166D01*
X129010466Y-70707118D01*
X128804175Y-70398382D01*
X128541618Y-70135825D01*
X128232882Y-69929534D01*
X127889834Y-69787439D01*
X127525656Y-69715000D01*
X127154344Y-69715000D01*
X126790166Y-69787439D01*
X126447118Y-69929534D01*
X126138382Y-70135825D01*
X125875825Y-70398382D01*
X125669534Y-70707118D01*
X125527439Y-71050166D01*
X125455000Y-71414344D01*
X120486072Y-71414344D01*
X120486072Y-71390000D01*
X120473812Y-71265518D01*
X120437502Y-71145820D01*
X120378537Y-71035506D01*
X120299185Y-70938815D01*
X120202494Y-70859463D01*
X120092180Y-70800498D01*
X119972482Y-70764188D01*
X119848000Y-70751928D01*
X114848000Y-70751928D01*
X114723518Y-70764188D01*
X114603820Y-70800498D01*
X114493506Y-70859463D01*
X114396815Y-70938815D01*
X114317463Y-71035506D01*
X114258498Y-71145820D01*
X114222188Y-71265518D01*
X114209928Y-71390000D01*
X114209928Y-71593938D01*
X114103941Y-71650589D01*
X114103939Y-71650590D01*
X114103940Y-71650590D01*
X114002953Y-71733468D01*
X114002951Y-71733470D01*
X113969183Y-71761183D01*
X113941470Y-71794951D01*
X113171422Y-72565000D01*
X112423465Y-72565000D01*
X112379999Y-72560719D01*
X112336533Y-72565000D01*
X112336523Y-72565000D01*
X112206510Y-72577805D01*
X112039687Y-72628411D01*
X111885941Y-72710589D01*
X111885939Y-72710590D01*
X111885940Y-72710590D01*
X111784953Y-72793468D01*
X111784951Y-72793470D01*
X111751183Y-72821183D01*
X111723470Y-72854951D01*
X109254956Y-75323466D01*
X109221183Y-75351183D01*
X109110589Y-75485942D01*
X109028411Y-75639688D01*
X108977805Y-75806511D01*
X108965000Y-75936524D01*
X108965000Y-75936531D01*
X108960719Y-75980000D01*
X108965000Y-76023469D01*
X108965001Y-87651544D01*
X108932795Y-87699744D01*
X108854774Y-87888102D01*
X108815000Y-88088061D01*
X83626899Y-88088061D01*
X84390259Y-85807236D01*
X85391134Y-83313604D01*
X86536629Y-80883009D01*
X87822796Y-78523830D01*
X88357670Y-77666607D01*
X89815000Y-77666607D01*
X89815000Y-78333393D01*
X89945083Y-78987368D01*
X90200252Y-79603399D01*
X90570698Y-80157812D01*
X91042188Y-80629302D01*
X91596601Y-80999748D01*
X92212632Y-81254917D01*
X92866607Y-81385000D01*
X93533393Y-81385000D01*
X94187368Y-81254917D01*
X94803399Y-80999748D01*
X95357812Y-80629302D01*
X95829302Y-80157812D01*
X96199748Y-79603399D01*
X96454917Y-78987368D01*
X96585000Y-78333393D01*
X96585000Y-77666607D01*
X96454917Y-77012632D01*
X96199748Y-76396601D01*
X95829302Y-75842188D01*
X95357812Y-75370698D01*
X94803399Y-75000252D01*
X94187368Y-74745083D01*
X93533393Y-74615000D01*
X92866607Y-74615000D01*
X92212632Y-74745083D01*
X91596601Y-75000252D01*
X91042188Y-75370698D01*
X90570698Y-75842188D01*
X90200252Y-76396601D01*
X89945083Y-77012632D01*
X89815000Y-77666607D01*
X88357670Y-77666607D01*
X89245200Y-76244198D01*
X90798939Y-74051974D01*
X92478656Y-71954713D01*
X94278561Y-69959646D01*
X96192450Y-68073650D01*
X98213725Y-66303226D01*
X100335417Y-64654477D01*
X102550214Y-63133087D01*
X104850480Y-61744300D01*
X107228286Y-60492905D01*
X109675435Y-59383214D01*
X112183491Y-58419053D01*
X114743809Y-57603746D01*
X117347562Y-56940102D01*
X119985775Y-56430411D01*
X122649353Y-56076429D01*
X125329114Y-55879376D01*
X128015822Y-55839931D01*
X130700213Y-55958231D01*
M02*
