G04 #@! TF.GenerationSoftware,KiCad,Pcbnew,(5.1.5)-3*
G04 #@! TF.CreationDate,2022-01-09T16:05:41+01:00*
G04 #@! TF.ProjectId,plateau allumage,706c6174-6561-4752-9061-6c6c756d6167,rev?*
G04 #@! TF.SameCoordinates,Original*
G04 #@! TF.FileFunction,Legend,Bot*
G04 #@! TF.FilePolarity,Positive*
%FSLAX46Y46*%
G04 Gerber Fmt 4.6, Leading zero omitted, Abs format (unit mm)*
G04 Created by KiCad (PCBNEW (5.1.5)-3) date 2022-01-09 16:05:41*
%MOMM*%
%LPD*%
G04 APERTURE LIST*
%ADD10C,0.150000*%
G04 APERTURE END LIST*
D10*
X111744285Y-78414571D02*
X112506190Y-78414571D01*
X112125238Y-78033619D02*
X112125238Y-78795523D01*
X113458571Y-79033619D02*
X112982380Y-79033619D01*
X112934761Y-78557428D01*
X112982380Y-78605047D01*
X113077619Y-78652666D01*
X113315714Y-78652666D01*
X113410952Y-78605047D01*
X113458571Y-78557428D01*
X113506190Y-78462190D01*
X113506190Y-78224095D01*
X113458571Y-78128857D01*
X113410952Y-78081238D01*
X113315714Y-78033619D01*
X113077619Y-78033619D01*
X112982380Y-78081238D01*
X112934761Y-78128857D01*
X113791904Y-79033619D02*
X114125238Y-78033619D01*
X114458571Y-79033619D01*
X109426666Y-81383238D02*
X109569523Y-81335619D01*
X109807619Y-81335619D01*
X109902857Y-81383238D01*
X109950476Y-81430857D01*
X109998095Y-81526095D01*
X109998095Y-81621333D01*
X109950476Y-81716571D01*
X109902857Y-81764190D01*
X109807619Y-81811809D01*
X109617142Y-81859428D01*
X109521904Y-81907047D01*
X109474285Y-81954666D01*
X109426666Y-82049904D01*
X109426666Y-82145142D01*
X109474285Y-82240380D01*
X109521904Y-82288000D01*
X109617142Y-82335619D01*
X109855238Y-82335619D01*
X109998095Y-82288000D01*
X110807619Y-81383238D02*
X110712380Y-81335619D01*
X110521904Y-81335619D01*
X110426666Y-81383238D01*
X110379047Y-81478476D01*
X110379047Y-81859428D01*
X110426666Y-81954666D01*
X110521904Y-82002285D01*
X110712380Y-82002285D01*
X110807619Y-81954666D01*
X110855238Y-81859428D01*
X110855238Y-81764190D01*
X110379047Y-81668952D01*
X111283809Y-82002285D02*
X111283809Y-81335619D01*
X111283809Y-81907047D02*
X111331428Y-81954666D01*
X111426666Y-82002285D01*
X111569523Y-82002285D01*
X111664761Y-81954666D01*
X111712380Y-81859428D01*
X111712380Y-81335619D01*
X112140952Y-81383238D02*
X112236190Y-81335619D01*
X112426666Y-81335619D01*
X112521904Y-81383238D01*
X112569523Y-81478476D01*
X112569523Y-81526095D01*
X112521904Y-81621333D01*
X112426666Y-81668952D01*
X112283809Y-81668952D01*
X112188571Y-81716571D01*
X112140952Y-81811809D01*
X112140952Y-81859428D01*
X112188571Y-81954666D01*
X112283809Y-82002285D01*
X112426666Y-82002285D01*
X112521904Y-81954666D01*
X113140952Y-81335619D02*
X113045714Y-81383238D01*
X112998095Y-81430857D01*
X112950476Y-81526095D01*
X112950476Y-81811809D01*
X112998095Y-81907047D01*
X113045714Y-81954666D01*
X113140952Y-82002285D01*
X113283809Y-82002285D01*
X113379047Y-81954666D01*
X113426666Y-81907047D01*
X113474285Y-81811809D01*
X113474285Y-81526095D01*
X113426666Y-81430857D01*
X113379047Y-81383238D01*
X113283809Y-81335619D01*
X113140952Y-81335619D01*
X113902857Y-81335619D02*
X113902857Y-82002285D01*
X113902857Y-81811809D02*
X113950476Y-81907047D01*
X113998095Y-81954666D01*
X114093333Y-82002285D01*
X114188571Y-82002285D01*
X112014095Y-75938000D02*
X111918857Y-75985619D01*
X111776000Y-75985619D01*
X111633142Y-75938000D01*
X111537904Y-75842761D01*
X111490285Y-75747523D01*
X111442666Y-75557047D01*
X111442666Y-75414190D01*
X111490285Y-75223714D01*
X111537904Y-75128476D01*
X111633142Y-75033238D01*
X111776000Y-74985619D01*
X111871238Y-74985619D01*
X112014095Y-75033238D01*
X112061714Y-75080857D01*
X112061714Y-75414190D01*
X111871238Y-75414190D01*
X112490285Y-74985619D02*
X112490285Y-75985619D01*
X113061714Y-74985619D01*
X113061714Y-75985619D01*
X113537904Y-74985619D02*
X113537904Y-75985619D01*
X113776000Y-75985619D01*
X113918857Y-75938000D01*
X114014095Y-75842761D01*
X114061714Y-75747523D01*
X114109333Y-75557047D01*
X114109333Y-75414190D01*
X114061714Y-75223714D01*
X114014095Y-75128476D01*
X113918857Y-75033238D01*
X113776000Y-74985619D01*
X113537904Y-74985619D01*
X109426666Y-71985238D02*
X109569523Y-71937619D01*
X109807619Y-71937619D01*
X109902857Y-71985238D01*
X109950476Y-72032857D01*
X109998095Y-72128095D01*
X109998095Y-72223333D01*
X109950476Y-72318571D01*
X109902857Y-72366190D01*
X109807619Y-72413809D01*
X109617142Y-72461428D01*
X109521904Y-72509047D01*
X109474285Y-72556666D01*
X109426666Y-72651904D01*
X109426666Y-72747142D01*
X109474285Y-72842380D01*
X109521904Y-72890000D01*
X109617142Y-72937619D01*
X109855238Y-72937619D01*
X109998095Y-72890000D01*
X110807619Y-71985238D02*
X110712380Y-71937619D01*
X110521904Y-71937619D01*
X110426666Y-71985238D01*
X110379047Y-72080476D01*
X110379047Y-72461428D01*
X110426666Y-72556666D01*
X110521904Y-72604285D01*
X110712380Y-72604285D01*
X110807619Y-72556666D01*
X110855238Y-72461428D01*
X110855238Y-72366190D01*
X110379047Y-72270952D01*
X111283809Y-72604285D02*
X111283809Y-71937619D01*
X111283809Y-72509047D02*
X111331428Y-72556666D01*
X111426666Y-72604285D01*
X111569523Y-72604285D01*
X111664761Y-72556666D01*
X111712380Y-72461428D01*
X111712380Y-71937619D01*
X112140952Y-71985238D02*
X112236190Y-71937619D01*
X112426666Y-71937619D01*
X112521904Y-71985238D01*
X112569523Y-72080476D01*
X112569523Y-72128095D01*
X112521904Y-72223333D01*
X112426666Y-72270952D01*
X112283809Y-72270952D01*
X112188571Y-72318571D01*
X112140952Y-72413809D01*
X112140952Y-72461428D01*
X112188571Y-72556666D01*
X112283809Y-72604285D01*
X112426666Y-72604285D01*
X112521904Y-72556666D01*
X113140952Y-71937619D02*
X113045714Y-71985238D01*
X112998095Y-72032857D01*
X112950476Y-72128095D01*
X112950476Y-72413809D01*
X112998095Y-72509047D01*
X113045714Y-72556666D01*
X113140952Y-72604285D01*
X113283809Y-72604285D01*
X113379047Y-72556666D01*
X113426666Y-72509047D01*
X113474285Y-72413809D01*
X113474285Y-72128095D01*
X113426666Y-72032857D01*
X113379047Y-71985238D01*
X113283809Y-71937619D01*
X113140952Y-71937619D01*
X113902857Y-71937619D02*
X113902857Y-72604285D01*
X113902857Y-72413809D02*
X113950476Y-72509047D01*
X113998095Y-72556666D01*
X114093333Y-72604285D01*
X114188571Y-72604285D01*
X114492380Y-100838095D02*
X115301904Y-100838095D01*
X115397142Y-100885714D01*
X115444761Y-100933333D01*
X115492380Y-101028571D01*
X115492380Y-101219047D01*
X115444761Y-101314285D01*
X115397142Y-101361904D01*
X115301904Y-101409523D01*
X114492380Y-101409523D01*
X115492380Y-102409523D02*
X115492380Y-101838095D01*
X115492380Y-102123809D02*
X114492380Y-102123809D01*
X114635238Y-102028571D01*
X114730476Y-101933333D01*
X114778095Y-101838095D01*
M02*
